<mxfile host="app.diagrams.net" modified="2021-08-14T11:48:45.169Z" agent="5.0 (Windows NT 10.0; Win64; x64) AppleWebKit/537.36 (KHTML, like Gecko) Chrome/91.0.4472.114 Safari/537.36" etag="Q1t5oW0SG4zNxHzCQmxR" version="14.9.6" type="github">
  <diagram name="Page-1" id="a7904f86-f2b4-8e86-fa97-74104820619b">
    <mxGraphModel dx="484" dy="1273" grid="1" gridSize="10" guides="1" tooltips="1" connect="1" arrows="1" fold="1" page="1" pageScale="1" pageWidth="1654" pageHeight="1169" background="#ffffff" math="0" shadow="1">
      <root>
        <mxCell id="0" />
        <mxCell id="1" parent="0" />
        <mxCell id="8ERLdZ6b94XzT8z4K4eN-1" value="" style="rounded=0;whiteSpace=wrap;html=1;sketch=1;fontColor=#5C5C5C;strokeColor=#006658;fillColor=#21C0A5;" vertex="1" parent="1">
          <mxGeometry x="190" y="250" width="120" height="60" as="geometry" />
        </mxCell>
        <mxCell id="8ERLdZ6b94XzT8z4K4eN-2" value="" style="shape=process;whiteSpace=wrap;html=1;backgroundOutline=1;rounded=1;sketch=1;fontColor=#5C5C5C;strokeColor=#006658;fillColor=#21C0A5;" vertex="1" parent="1">
          <mxGeometry x="180" y="585" width="120" height="60" as="geometry" />
        </mxCell>
        <mxCell id="8ERLdZ6b94XzT8z4K4eN-4" value="Comment1 body" style="shape=note2;boundedLbl=1;whiteSpace=wrap;html=1;size=25;verticalAlign=top;align=center;rounded=1;sketch=1;fontColor=#5C5C5C;strokeColor=#006658;fillColor=#21C0A5;" vertex="1" parent="1">
          <mxGeometry x="100" y="1030" width="120" height="60" as="geometry" />
        </mxCell>
        <mxCell id="8ERLdZ6b94XzT8z4K4eN-38" value="Horizontal Tree Layout" style="swimlane;startSize=20;horizontal=0;childLayout=treeLayout;horizontalTree=1;resizable=0;containerType=tree;rounded=1;sketch=1;fontColor=#5C5C5C;strokeColor=#006658;fillColor=#21C0A5;" vertex="1" parent="1">
          <mxGeometry x="260" y="900" width="460" height="240" as="geometry" />
        </mxCell>
        <mxCell id="8ERLdZ6b94XzT8z4K4eN-39" value="spring" style="whiteSpace=wrap;html=1;" vertex="1" parent="8ERLdZ6b94XzT8z4K4eN-38">
          <mxGeometry x="40" y="100" width="100" height="40" as="geometry" />
        </mxCell>
        <mxCell id="8ERLdZ6b94XzT8z4K4eN-40" value="核心概念" style="whiteSpace=wrap;html=1;" vertex="1" parent="8ERLdZ6b94XzT8z4K4eN-38">
          <mxGeometry x="190" y="20" width="100" height="40" as="geometry" />
        </mxCell>
        <mxCell id="8ERLdZ6b94XzT8z4K4eN-41" value="" style="edgeStyle=elbowEdgeStyle;elbow=horizontal;html=1;rounded=0;" edge="1" parent="8ERLdZ6b94XzT8z4K4eN-38" source="8ERLdZ6b94XzT8z4K4eN-39" target="8ERLdZ6b94XzT8z4K4eN-40">
          <mxGeometry relative="1" as="geometry" />
        </mxCell>
        <mxCell id="8ERLdZ6b94XzT8z4K4eN-42" value="Child 2" style="whiteSpace=wrap;html=1;" vertex="1" parent="8ERLdZ6b94XzT8z4K4eN-38">
          <mxGeometry x="190" y="100" width="100" height="40" as="geometry" />
        </mxCell>
        <mxCell id="8ERLdZ6b94XzT8z4K4eN-43" value="" style="edgeStyle=elbowEdgeStyle;elbow=horizontal;html=1;rounded=0;" edge="1" parent="8ERLdZ6b94XzT8z4K4eN-38" source="8ERLdZ6b94XzT8z4K4eN-39" target="8ERLdZ6b94XzT8z4K4eN-42">
          <mxGeometry relative="1" as="geometry" />
        </mxCell>
        <mxCell id="8ERLdZ6b94XzT8z4K4eN-44" value="" style="edgeStyle=elbowEdgeStyle;elbow=horizontal;html=1;rounded=0;" edge="1" target="8ERLdZ6b94XzT8z4K4eN-45" source="8ERLdZ6b94XzT8z4K4eN-40" parent="8ERLdZ6b94XzT8z4K4eN-38">
          <mxGeometry relative="1" as="geometry">
            <mxPoint x="400" y="940" as="sourcePoint" />
          </mxGeometry>
        </mxCell>
        <mxCell id="8ERLdZ6b94XzT8z4K4eN-45" value="Child 1" style="whiteSpace=wrap;html=1;" vertex="1" parent="8ERLdZ6b94XzT8z4K4eN-38">
          <mxGeometry x="340" y="20" width="100" height="40" as="geometry" />
        </mxCell>
        <mxCell id="8ERLdZ6b94XzT8z4K4eN-46" value="" style="edgeStyle=elbowEdgeStyle;elbow=horizontal;html=1;rounded=0;" edge="1" target="8ERLdZ6b94XzT8z4K4eN-47" source="8ERLdZ6b94XzT8z4K4eN-39" parent="8ERLdZ6b94XzT8z4K4eN-38">
          <mxGeometry relative="1" as="geometry">
            <mxPoint x="400" y="940" as="sourcePoint" />
          </mxGeometry>
        </mxCell>
        <mxCell id="8ERLdZ6b94XzT8z4K4eN-47" value="Child 2" style="whiteSpace=wrap;html=1;" vertex="1" parent="8ERLdZ6b94XzT8z4K4eN-38">
          <mxGeometry x="190" y="180" width="100" height="40" as="geometry" />
        </mxCell>
      </root>
    </mxGraphModel>
  </diagram>
</mxfile>
